<svg  viewBox="0 0 512 512" preserveAspectRatio="none"
           xmlns="http://www.w3.org/2000/svg">
<path d="m204.357 349.443 101.829-17.35 22.289-49.772 49.091-21.454 31.088-74.629 36.931-23.751 58.112-141.097c3.325-8.072-4.555-16.236-12.77-13.231l-142.607 52.156-44.845 49.887-68.058 24.442-27.345 63.512-40.146 24.12-6.364 84.453z"
      fill="#e0e0e0"/>
<path d="m377.565 260.867 31.088-74.629 36.931-23.751 58.113-141.097c3.299-8.009-4.433-16.094-12.578-13.286-.063.178-.101.355-.174.532l-58.114 141.096-36.931 23.752-31.088 74.629-49.091 21.454-22.289 49.772-101.829 17.35 12.753 12.753 101.829-17.35 22.289-49.772z"
      fill="#ccc"/>
<path d="m18.062 493.967c-14.064-14.035-14.064-36.779 0-50.814l145.611-145.316c14.078-14.05 36.915-14.05 50.993 0 14.064 14.035 14.064 36.779 0 50.814l-145.611 145.316c-14.078 14.05-36.914 14.05-50.993 0z"
      fill="#e8834d"/>
<path d="m214.666 297.838c-2.196-2.191-4.605-4.04-7.16-5.548 8.121 13.773 6.258 31.783-5.593 43.609l-145.611 145.315c-11.883 11.858-30.004 13.708-43.833 5.548 1.517 2.572 3.38 4.997 5.593 7.205 14.078 14.05 36.914 14.05 50.993 0l145.611-145.315c14.064-14.035 14.064-36.779 0-50.814z"
      fill="#d66e41"/>
<path d="m133.929 449.221c-2.636-2.63-4.266-6.264-4.266-10.277v-141.938c0-8.027 6.52-14.534 14.564-14.535 8.044 0 14.564 6.507 14.564 14.535v141.938c0 8.027-6.52 14.534-14.564 14.535-4.022-.001-7.663-1.627-10.298-4.258z"
      fill="#6acb44"/>
<path d="m158.791 297.005c0-8.028-6.52-14.535-14.564-14.535-2.656 0-5.138.721-7.282 1.96 4.349 2.514 7.282 7.197 7.282 12.574v141.938c0 5.376-2.933 10.06-7.282 12.574 2.144 1.24 4.626 1.961 7.282 1.961 8.044 0 14.564-6.508 14.564-14.535z"
      fill="#4fc223"/>
<path d="m62.938 378.374c-2.636-2.63-4.266-6.264-4.266-10.277 0-8.027 6.521-14.535 14.564-14.535h142.227c8.044 0 14.564 6.507 14.564 14.535 0 8.027-6.521 14.535-14.564 14.535h-142.227c-4.022-.001-7.663-1.627-10.298-4.258z"
      fill="#98db7c"/>
<path d="m215.463 368.097h-142.227c-4.022 0-7.663-1.627-10.298-4.257-.895-.893-1.663-1.91-2.301-3.01-1.242 2.14-1.964 4.617-1.964 7.267 0 4.014 1.63 7.647 4.266 10.277s6.276 4.257 10.298 4.257h142.227c8.043 0 14.564-6.508 14.564-14.535 0-2.651-.722-5.128-1.964-7.268-2.521 4.341-7.214 7.269-12.601 7.269z"
      fill="#82d361"/>
<path d="m507.076 5.433c-4.903-5.104-12.078-6.762-18.73-4.331l-70.769 25.882c-3.898 1.426-5.902 5.741-4.476 9.639s5.741 5.899 9.639 4.477l70.769-25.882c1.369-.502 2.298.179 2.729.628.516.538 1.024 1.439.512 2.684l-57.215 138.914-34.946 22.475c-1.284.825-2.285 2.022-2.872 3.431l-10.164 24.4c-1.596 3.831.216 8.231 4.047 9.827.945.393 1.924.58 2.887.58 2.943 0 5.737-1.74 6.94-4.627l9.263-22.237 34.96-22.483c1.292-.831 2.299-2.038 2.884-3.459l58.113-141.096c2.684-6.523 1.316-13.734-3.571-18.822z"/>
<path d="m389.839 231.403c-3.831-1.596-8.231.216-9.827 4.047l-8.223 19.74-46.325 20.245c-1.713.749-3.085 2.109-3.849 3.815l-20.648 46.109-70.597 12.029c1.545-4.492 2.358-9.254 2.358-14.142 0-11.606-4.529-22.519-12.754-30.727-13.269-13.242-33.037-16.139-49.151-8.693l4.304-57.11 36.814-22.119c1.349-.81 2.41-2.024 3.032-3.47l26.055-60.514 64.986-23.339c1.17-.42 2.218-1.124 3.049-2.049l43.594-48.496 41.941-15.338c3.898-1.426 5.902-5.741 4.476-9.639s-5.741-5.902-9.639-4.477l-43.698 15.981c-1.154.422-2.186 1.12-3.007 2.034l-43.579 48.479-66.275 23.801c-1.959.703-3.539 2.188-4.362 4.101l-26.388 61.288-38.071 22.874c-2.09 1.255-3.44 3.446-3.624 5.877l-4.277 56.755c-3.443-2.217-7.537-3.51-11.929-3.51-12.174.001-22.078 9.892-22.078 22.049v31.657l-17.42 17.385h-31.491c-12.175 0-22.079 9.891-22.079 22.049 0 5.893 2.298 11.431 6.472 15.596 1.615 1.612 3.44 2.934 5.407 3.961l-17.445 17.409c-2.938 2.932-2.943 7.69-.011 10.628 1.468 1.471 3.393 2.207 5.319 2.207 1.92 0 3.841-.732 5.308-2.196l25.607-25.555h40.333v40.219l-58.401 58.282c-11.131 11.108-29.245 11.109-40.377 0-5.379-5.368-8.341-12.502-8.341-20.088s2.962-14.72 8.341-20.088l11.551-11.528c2.938-2.932 2.943-7.69.011-10.627-2.931-2.938-7.689-2.943-10.627-.011l-11.551 11.528c-8.224 8.21-12.753 19.122-12.753 30.728 0 11.607 4.529 22.519 12.754 30.726 8.493 8.477 19.647 12.715 30.804 12.714 11.154-.001 22.313-4.239 30.805-12.714l50.274-50.172c1.031 1.975 2.361 3.806 3.984 5.425 4.169 4.161 9.712 6.453 15.606 6.453 12.174 0 22.078-9.891 22.078-22.049v-31.412l17.42-17.385h31.737c12.174 0 22.079-9.891 22.079-22.049 0-6.078-2.475-11.59-6.472-15.582l76.379-13.014c2.472-.421 4.571-2.048 5.596-4.337l21.101-47.12 46.429-20.291c1.775-.776 3.182-2.207 3.927-3.996l9.384-22.527c1.597-3.831-.215-8.231-4.046-9.827zm-180.481 71.754c5.379 5.368 8.341 12.502 8.341 20.088s-2.962 14.72-8.341 20.088l-2.72 2.715h-40.333v-40.22l2.677-2.671c11.132-11.109 29.244-11.11 40.376 0zm-65.131-13.171c3.887 0 7.05 3.149 7.05 7.02v49.042h-14.099v-49.042c-.001-3.871 3.162-7.02 7.049-7.02zm0 155.977c-1.886 0-3.658-.732-4.991-2.062-1.328-1.325-2.059-3.086-2.059-4.958v-48.797h14.099v48.797c0 3.871-3.162 7.02-7.049 7.02zm71.236-70.846h-142.227c-1.886 0-3.659-.732-4.991-2.062-1.328-1.325-2.059-3.086-2.059-4.958 0-3.871 3.162-7.02 7.05-7.02h142.227c3.887 0 7.05 3.149 7.05 7.02s-3.163 7.02-7.05 7.02z"/>
        <path d="m501.766 9.827c-162.041-16.16-198.1 57.376-198.1 57.376l-14.258-19.726c-43.373 44.305-43.104 107.063-17.323 151.857l.154-.153 31.639-18.207 16.428-29.738 53.554-19.52-20.698 58.362-17.645 17.6-21.904 32.773-1.662 1.657c94.026 65.826 181.603-54.957 181.603-54.957l-17.51-9.053c40.779-57.706 25.722-168.271 25.722-168.271z" fill="#ffe55a"></path>
</svg>