<svg  height="512pt" viewBox="0 0 512 512" width="512pt" xmlns="http://www.w3.org/2000/svg"><path style="stroke: #ffffff;stroke-width: 0px;" fill="#3867d6" d="m296.710938 351.859375-3.179688-6.5c-11.859375 2.539063-24.070312 3.832031-36.472656 3.832031-.007813 0-1.058594 0-1.058594 0h-1.050781c-12.390625 0-24.480469-1.300781-36.140625-3.792968l-3.019532 5.910156c-4.527343 8.863281-6.917968 18.800781-6.917968 28.761718v23.410157c-23.53125 5.75-41.929688 24.699219-46.882813 48.519531h188.023438c-4.953125-23.820312-23.351563-42.769531-46.882813-48.519531v-23.859375c0-9.570313-2.21875-19.171875-6.417968-27.761719zm0 0"/><path style="stroke: #ffffff;stroke-width: 0px;" fill="#3867d6" d="m368.46875 482h-224.9375c-8.28125 0-15 6.714844-15 15s6.71875 15 15 15h224.9375c8.28125 0 15-6.714844 15-15s-6.71875-15-15-15zm0 0"/><path style="stroke: #ffffff;stroke-width: 0px;" fill="#3867d6" d="m107.128906 64.265625h297.742188c4.5-14.433594 12.453125-27.660156 23.449218-38.660156 4.289063-4.289063 5.574219-10.738281 3.25-16.34375-2.320312-5.609375-7.789062-9.261719-13.855468-9.261719h-323.429688c-6.066406 0-11.535156 3.652344-13.855468 9.261719-2.324219 5.601562-1.039063 12.054687 3.25 16.34375 10.996093 10.996093 18.949218 24.226562 23.449218 38.660156zm0 0"/><path style="stroke: #ffffff;stroke-width: 0px;" fill="#3867d6" d="m416.667969 64.265625h-11.796875c-2.820313 9.046875-4.289063 18.566406-4.289063 28.3125v1.6875h16.085938c36.144531 0 65.332031 29.25 65.332031 65.335937 0 36.144532-29.257812 65.332032-65.332031 65.332032h-16.066407c-3.097656 0-6.125.308594-9.058593.882812 5.839843-15.613281 9.039062-32.507812 9.039062-50.132812v-81.417969h-289.164062v81.417969c0 17.617187 3.199219 34.511718 9.046875 50.132812-2.9375-.574218-5.964844-.882812-9.066406-.882812h-16.066407c-36.074219 0-65.332031-29.1875-65.332031-65.332032 0-36.085937 29.1875-65.335937 65.332031-65.335937h16.085938v-1.6875c0-9.746094-1.46875-19.265625-4.289063-28.3125h-11.796875c-52.640625 0-95.332031 42.589844-95.332031 95.335937 0 52.652344 42.589844 95.332032 95.332031 95.332032h16.066407c9.449218 0 17.132812 7.6875 17.132812 17.132812 0 9.457032-7.675781 17.132813-17.117188 17.132813-8.28125 0-15.007812 6.71875-15.007812 15 0 8.285156 6.710938 15 14.992188 15 22.914062 0 42.039062-16.417969 46.257812-38.101563 25.8125 23.839844 60.375 38.363282 98.34375 38.089844 37.925781.273438 72.511719-14.238281 98.339844-38.089844 4.21875 21.683594 23.347656 38.101563 46.261718 38.101563 8.28125 0 14.992188-6.714844 14.992188-15 0-8.28125-6.726562-15-15.007812-15-9.441407 0-17.117188-7.675781-17.117188-17.132813 0-9.445312 7.683594-17.132812 17.132812-17.132812h16.0625c52.742188 0 95.335938-42.679688 95.335938-95.332032 0-52.746093-42.691406-95.335937-95.332031-95.335937zm-137.996094 175.667969c0 8.285156-6.71875 15-15 15-8.285156 0-15-6.714844-15-15v-72.128906l-10.425781 5.210937c-7.410156 3.707031-16.421875.703125-20.125-6.707031-3.707032-7.410156-.703125-16.417969 6.707031-20.125l32.132813-16.066406c4.648437-2.324219 10.171874-2.078126 14.59375.65625 4.421874 2.734374 7.113281 7.5625 7.113281 12.761718v96.398438zm0 0"/></svg>
