<svg height="512pt" viewBox="0 0 512 512" width="512pt" xmlns="http://www.w3.org/2000/svg"><path style="stroke: #ffffff;stroke-width: 0px;" fill="#3867d6" d="m369.886719 482h-224.246094c-8.28125 0-15 6.714844-15 15s6.71875 15 15 15h224.246094c8.28125 0 15-6.714844 15-15s-6.71875-15-15-15zm0 0"/><path style="stroke: #ffffff;stroke-width: 0px;" fill="#3867d6" d="m399.53125 15c0-8.285156-6.714844-15-15-15h-257.0625c-8.285156 0-15 6.714844-15 15v49.265625h287.0625zm0 0"/><path style="stroke: #ffffff;stroke-width: 0px;" fill="#3867d6" d="m416.667969 64.265625h-17.132813v30h17.132813c36.136719 0 65.332031 29.25 65.332031 65.335937v16.066407c0 36.023437-29.308594 65.332031-65.332031 65.332031h-16.066407c-1.6875 0-3.351562.09375-4.992187.265625 2.5625-10.734375 3.921875-21.9375 3.921875-33.464844v-113.535156h-287.0625v113.550781c0 11.515625 1.371094 22.714844 3.945312 33.453125-1.648437-.175781-3.320312-.269531-5.015624-.269531h-16.066407c-36.023437 0-65.332031-29.308594-65.332031-65.332031v-16.066407c0-36.085937 29.195312-65.335937 65.332031-65.335937h17.132813v-30h-17.132813c-52.640625 0-95.332031 42.59375-95.332031 95.335937v16.066407c0 52.566406 42.765625 95.332031 95.332031 95.332031h16.066407c9.449218 0 17.132812 7.6875 17.132812 17.132812 0 9.457032-7.675781 17.132813-17.117188 17.132813-8.28125 0-15.007812 6.71875-15.007812 15 0 8.285156 6.710938 15 14.992188 15 18.6875 0 34.859374-10.917969 42.480468-26.703125 22.8125 23.117188 53.394532 38.554688 87.464844 42.027344v51.078125h-32.125c-26.332031 0-47.132812 21.378906-47.132812 47.132812v3.199219h190.667968v-3.199219c0-26.285156-21.335937-47.132812-47.136718-47.132812h-34.269532v-51.148438c33.839844-3.59375 64.167969-18.925781 86.820313-41.867187 7.640625 15.738281 23.785156 26.617187 42.433593 26.617187 8.285157 0 14.992188-6.71875 14.992188-15 0-8.285156-6.726562-15-15.007812-15-9.4375 0-17.117188-7.679687-17.117188-17.132812 0-9.449219 7.683594-17.136719 17.132812-17.136719h16.066407c52.566406 0 95.332031-42.765625 95.332031-95.332031v-16.066407c0-52.742187-42.691406-95.335937-95.332031-95.335937zm-126.773438 160.667969c8.285157 0 15 6.714844 15 15s-6.714843 15-15 15h-64.265625c-8.28125 0-15-6.714844-15-15 0-16.6875 9.003906-32.203125 23.492188-40.492188l32.777344-18.722656c4.929687-2.820312 8-8.109375 8-13.792969 0-9.0625-7.363282-16.425781-16.410157-16.425781h-.742187c-9.4375 0-17.113282 7.679688-17.113282 17.117188 0 8.285156-6.71875 15.007812-15 15.007812-8.285156 0-15-6.707031-15-14.992188v-.015624c0-25.980469 21.136719-47.117188 47.113282-47.117188h.742187c25.589844 0 46.410157 20.820312 46.410157 46.410156 0 16.4375-8.859376 31.699219-23.113282 39.851563l-31.8125 18.171875zm0 0"/></svg>
