<svg height="512pt" viewBox="0 0 512 512" width="512pt" xmlns="http://www.w3.org/2000/svg"><path style="stroke: #ffffff;stroke-width: 0px;" fill="#c0392b" d="m399.53125 15c0-8.285156-6.714844-15-15-15h-257.0625c-8.285156 0-15 6.714844-15 15v49.265625h287.0625zm0 0"/><path style="stroke: #ffffff;stroke-width: 0px;" fill="#c0392b" d="m368.46875 482h-224.242188c-8.285156 0-15 6.714844-15 15s6.714844 15 15 15h224.242188c8.28125 0 15-6.714844 15-15s-6.71875-15-15-15zm0 0"/><path style="stroke: #ffffff;stroke-width: 0px;" fill="#c0392b" d="m495.839844 80.425781c-10.417969-10.421875-24.273438-16.160156-39.007813-16.160156h-57.300781v30h57.300781c6.722657 0 13.042969 2.621094 17.796875 7.371094 4.753906 4.753906 7.371094 11.074219 7.371094 17.796875v40.167968c0 26.03125-10.140625 50.507813-28.546875 68.917969-16.890625 16.886719-38.886719 26.808594-62.507813 28.335938 5.554688-15.300781 8.585938-31.816407 8.585938-49.054688v-113.535156h-287.0625v113.550781c0 17.214844 3.046875 33.734375 8.632812 49.039063-23.640624-1.511719-45.65625-11.433594-62.554687-28.335938-18.40625-18.410156-28.546875-42.886719-28.546875-68.917969v-40.167968c0-6.722656 2.617188-13.042969 7.371094-17.796875 4.753906-4.75 11.074218-7.371094 17.796875-7.371094h57.300781v-30h-57.300781c-14.734375 0-28.589844 5.738281-39.007813 16.160156-10.421875 10.417969-16.160156 24.273438-16.160156 39.007813v40.167968c0 34.046876 13.257812 66.054688 37.335938 90.132813 24.074218 24.074219 56.082031 37.332031 90.132812 37.332031h8.925781c23.183594 34.863282 61.1875 59.054688 104.949219 63.515625v67.152344h-33.542969c-21.605469 0-39.75 14.492187-45.34375 34.265625h187.089844c-5.597656-19.796875-23.773437-34.265625-45.347656-34.265625h-32.851563v-67.226563c43.574219-4.625 81.324219-28.707031 104.359375-63.441406h8.828125c34.046875 0 66.058594-13.257812 90.132813-37.332031 24.074219-24.078125 37.332031-56.089844 37.332031-90.132813v-40.167968c0-14.734375-5.738281-28.589844-16.160156-39.007813zm-206.167969 168.734375c-8.898437 8.902344-20.734375 13.808594-33.324219 13.808594-26 0-47.136718-21.140625-47.136718-47.117188 0-8.285156 6.71875-15.011718 15-15.011718 8.285156 0 15 6.710937 15 14.992187v.019531c0 9.4375 7.679687 17.117188 17.117187 17.117188 4.59375 0 8.898437-1.785156 12.132813-5.019531 3.234374-3.234375 5.019531-7.539063 5.019531-12.117188 0-9.453125-7.679688-17.132812-17.117188-17.132812-5.40625 0-10.398437-2.90625-13.0625-7.609375-2.664062-4.703125-2.597656-10.472656.183594-15.105469l10.46875-17.449219h-21.707031c-8.285156 0-15-6.71875-15-15 0-8.285156 6.714844-15 15-15h48.199218c5.40625 0 10.390626 2.90625 13.054688 7.609375 2.660156 4.703125 2.589844 10.472657-.191406 15.105469l-14.042969 23.402344c14.4375 8.066406 24.214844 23.492187 24.214844 41.164062 0 12.609375-4.90625 24.445313-13.808594 33.34375zm0 0"/></svg>
